<svg width="600" height="800" viewBox="0 0 600 800" fill="none" xmlns="http://www.w3.org/2000/svg">
  <rect width="600" height="800" fill="#F5F5F5"/>
  <rect x="74" y="80" width="452" height="640" rx="34" fill="#FFFFFF" stroke="#CDCDCD" stroke-width="6"/>
  <path d="M142 250C211 196 289 193 366 247C402 272 433 276 467 253V607C411 645 360 639 302 607C239 572 185 578 142 612V250Z" fill="#0397D3"/>
  <path d="M166 308C217 278 262 278 316 309C370 340 415 340 448 318" stroke="white" stroke-width="16" stroke-linecap="round"/>
  <path d="M166 382C217 352 262 352 316 383C370 414 415 414 448 392" stroke="white" stroke-width="16" stroke-linecap="round"/>
  <text x="92" y="157" fill="#333333" font-family="Arial, sans-serif" font-size="46" font-weight="700">Borrowed Light</text>
</svg>
