<svg width="600" height="800" viewBox="0 0 600 800" fill="none" xmlns="http://www.w3.org/2000/svg">
  <defs>
    <linearGradient id="bg" x1="0" y1="0" x2="600" y2="800" gradientUnits="userSpaceOnUse">
      <stop offset="0%" stop-color="#0c1a30"/>
      <stop offset="100%" stop-color="#1a3a5c"/>
    </linearGradient>
  </defs>
  <rect width="600" height="800" fill="url(#bg)"/>
  <!-- Padma river waves -->
  <path d="M0 420 C80 390 160 450 240 415 C320 380 400 440 480 405 C540 378 580 400 600 390 L600 800 L0 800Z" fill="#1d6fa4" opacity="0.6"/>
  <path d="M0 480 C90 455 170 510 260 475 C350 440 430 500 520 465 C560 448 580 460 600 452 L600 800 L0 800Z" fill="#2980b9" opacity="0.7"/>
  <path d="M0 540 C100 520 200 560 300 535 C400 510 500 550 600 525 L600 800 L0 800Z" fill="#3498db" opacity="0.5"/>
  <!-- Boats -->
  <path d="M100 470 Q150 455 200 470 L195 490 L105 490 Z" fill="#c0392b" opacity="0.9"/>
  <rect x="145" y="450" width="3" height="25" fill="#7f8c8d"/>
  <path d="M148 450 L165 462 L148 468 Z" fill="#f39c12" opacity="0.9"/>
  <path d="M350 490 Q410 473 460 490 L455 510 L355 510 Z" fill="#8e44ad" opacity="0.9"/>
  <rect x="400" y="468" width="3" height="28" fill="#7f8c8d"/>
  <path d="M403 468 L422 480 L403 487 Z" fill="#e74c3c" opacity="0.9"/>
  <!-- Sun -->
  <circle cx="300" cy="160" r="60" fill="#f39c12" opacity="0.85"/>
  <circle cx="300" cy="160" r="45" fill="#f1c40f" opacity="0.9"/>
  <!-- Sun rays -->
  <line x1="300" y1="80" x2="300" y2="60" stroke="#f1c40f" stroke-width="3" opacity="0.5"/>
  <line x1="370" y1="95" x2="385" y2="80" stroke="#f1c40f" stroke-width="3" opacity="0.5"/>
  <line x1="380" y1="160" x2="400" y2="160" stroke="#f1c40f" stroke-width="3" opacity="0.5"/>
  <line x1="230" y1="95" x2="215" y2="80" stroke="#f1c40f" stroke-width="3" opacity="0.5"/>
  <line x1="220" y1="160" x2="200" y2="160" stroke="#f1c40f" stroke-width="3" opacity="0.5"/>
  <!-- Reflection -->
  <ellipse cx="300" cy="410" rx="50" ry="12" fill="#f39c12" opacity="0.2"/>
  <!-- Border frame -->
  <rect x="30" y="30" width="540" height="740" rx="12" stroke="#3498db" stroke-opacity="0.25" stroke-width="5"/>
  <!-- Title area -->
  <rect x="0" y="670" width="600" height="130" fill="#050e1a" opacity="0.9"/>
  <text x="300" y="705" fill="#fde68a" font-family="Georgia, serif" font-size="32" font-weight="700" text-anchor="middle">The Song of the</text>
  <text x="300" y="743" fill="#fde68a" font-family="Georgia, serif" font-size="32" font-weight="700" text-anchor="middle">Padma</text>
  <text x="300" y="775" fill="#7dd3fc" font-family="Arial, sans-serif" font-size="22" text-anchor="middle" opacity="0.85">Tasnim Ara</text>
</svg>
